<?xml version="1.0" encoding="UTF-8" standalone="yes"?><svg xmlns="http://www.w3.org/2000/svg" xmlns:xlink="http://www.w3.org/1999/xlink" height="1142pt" style="width:808px;height:1142px;" version="1.1" viewBox="0 0 808 1142" width="808pt"><defs><filter height="300%" id="f1" width="300%" x="-1" y="-1"><feGaussianBlur result="blurOut" stdDeviation="2"/><feColorMatrix in="blurOut" result="blurOut2" type="matrix" values="0 0 0 0 0 0 0 0 0 0 0 0 0 0 0 0 0 0 .4 0"/><feOffset dx="4" dy="4" in="blurOut2" result="blurOut3"/><feBlend in="SourceGraphic" in2="blurOut3" mode="normal"/></filter></defs><g><a xlink:href="LMI_DiskPartition.html" xlink:title="LMI_DiskPartition.html"><rect fill="#FEFECE" filter="url(#f1)" height="265.1719" style="stroke: #A80036; stroke-width: 1.5;" width="165" x="6" y="868.5"/><ellipse cx="42.85" cy="882.5" fill="#ADD1B2" rx="9" ry="9" style="stroke: #A80036; stroke-width: 1.0;"/><path d="M44.1313,885.7969 Q43.7875,885.9688 43.4125,886.0547 Q43.0375,886.1406 42.6156,886.1406 Q41.1469,886.1406 40.3734,885.1719 Q39.6,884.2031 39.6,882.3594 Q39.6,880.5156 40.3734,879.5469 Q41.1469,878.5781 42.6156,878.5781 Q43.0375,878.5781 43.4203,878.6641 Q43.8031,878.75 44.1313,878.9219 L44.1313,880.5313 Q43.7563,880.1875 43.4047,880.0313 Q43.0531,879.875 42.6938,879.875 Q41.8969,879.875 41.4906,880.5 Q41.0844,881.125 41.0844,882.3594 Q41.0844,883.5938 41.4906,884.2188 Q41.8969,884.8438 42.6938,884.8438 Q43.0531,884.8438 43.4047,884.6875 Q43.7563,884.5313 44.1313,884.1875 L44.1313,885.7969 Z "/><text fill="#000000" font-family="Monospace" font-size="10" lengthAdjust="spacingAndGlyphs" textLength="84" x="60.15" y="886.6797">LMI_DiskPartition</text><line style="stroke: #A80036; stroke-width: 1.5;" x1="7" x2="170" y1="896.5" y2="896.5"/><text fill="#000000" font-family="Monospace" font-size="10" lengthAdjust="spacingAndGlyphs" textLength="78" x="12" y="910.5">uint64 BlockSize</text><text fill="#000000" font-family="Monospace" font-size="10" lengthAdjust="spacingAndGlyphs" textLength="124" x="12" y="922.1406">uint64 ConsumableBlocks</text><text fill="#000000" font-family="Monospace" font-size="10" lengthAdjust="spacingAndGlyphs" textLength="117" x="12" y="933.7813">uint16 DataRedundancy</text><text fill="#000000" font-family="Monospace" font-size="10" lengthAdjust="spacingAndGlyphs" textLength="101" x="12" y="945.4219">string ElementName</text><text fill="#000000" font-family="Monospace" font-size="10" lengthAdjust="spacingAndGlyphs" textLength="135" x="12" y="957.0625">string[] ExtentDiscriminator</text><text fill="#000000" font-family="Monospace" font-size="10" lengthAdjust="spacingAndGlyphs" textLength="106" x="12" y="968.7031">uint16[] ExtentStatus</text><text fill="#000000" font-family="Monospace" font-size="10" lengthAdjust="spacingAndGlyphs" textLength="129" x="12" y="980.3438">uint64 ExtentStripeLength</text><text fill="#000000" font-family="Monospace" font-size="10" lengthAdjust="spacingAndGlyphs" textLength="82" x="12" y="991.9844">string InstanceID</text><text fill="#000000" font-family="Monospace" font-size="10" lengthAdjust="spacingAndGlyphs" textLength="60" x="12" y="1003.625">string Name</text><text fill="#000000" font-family="Monospace" font-size="10" lengthAdjust="spacingAndGlyphs" textLength="99" x="12" y="1015.2656">uint16 NameFormat</text><text fill="#000000" font-family="Monospace" font-size="10" lengthAdjust="spacingAndGlyphs" textLength="121" x="12" y="1026.9063">uint16 NameNamespace</text><text fill="#000000" font-family="Monospace" font-size="10" lengthAdjust="spacingAndGlyphs" textLength="73" x="12" y="1038.5469">string[] Names</text><text fill="#000000" font-family="Monospace" font-size="10" lengthAdjust="spacingAndGlyphs" textLength="153" x="12" y="1050.1875">boolean NoSinglePointOfFailure</text><text fill="#000000" font-family="Monospace" font-size="10" lengthAdjust="spacingAndGlyphs" textLength="115" x="12" y="1061.8281">uint64 NumberOfBlocks</text><text fill="#000000" font-family="Monospace" font-size="10" lengthAdjust="spacingAndGlyphs" textLength="129" x="12" y="1073.4688">uint16[] OperationalStatus</text><text fill="#000000" font-family="Monospace" font-size="10" lengthAdjust="spacingAndGlyphs" textLength="134" x="12" y="1085.1094">uint16 PackageRedundancy</text><text fill="#000000" font-family="Monospace" font-size="10" lengthAdjust="spacingAndGlyphs" textLength="97" x="12" y="1096.75">uint16 PartitionType</text><text fill="#000000" font-family="Monospace" font-size="10" lengthAdjust="spacingAndGlyphs" textLength="121" x="12" y="1108.3906">boolean PrimaryPartition</text><text fill="#000000" font-family="Monospace" font-size="10" lengthAdjust="spacingAndGlyphs" textLength="90" x="12" y="1120.0313">boolean Primordial</text><line style="stroke: #A80036; stroke-width: 1.5;" x1="7" x2="170" y1="1125.6719" y2="1125.6719"/></a><rect fill="#FEFECE" filter="url(#f1)" height="44" style="stroke: #A80036; stroke-width: 1.5;" width="114" x="31.25" y="665"/><ellipse cx="44.25" cy="679" fill="#ADD1B2" rx="9" ry="9" style="stroke: #A80036; stroke-width: 1.0;"/><path d="M45.5313,682.2969 Q45.1875,682.4688 44.8125,682.5547 Q44.4375,682.6406 44.0156,682.6406 Q42.5469,682.6406 41.7734,681.6719 Q41,680.7031 41,678.8594 Q41,677.0156 41.7734,676.0469 Q42.5469,675.0781 44.0156,675.0781 Q44.4375,675.0781 44.8203,675.1641 Q45.2031,675.25 45.5313,675.4219 L45.5313,677.0313 Q45.1563,676.6875 44.8047,676.5313 Q44.4531,676.375 44.0938,676.375 Q43.2969,676.375 42.8906,677 Q42.4844,677.625 42.4844,678.8594 Q42.4844,680.0938 42.8906,680.7188 Q43.2969,681.3438 44.0938,681.3438 Q44.4531,681.3438 44.8047,681.1875 Q45.1563,681.0313 45.5313,680.6875 L45.5313,682.2969 Z "/><text fill="#000000" font-family="Monospace" font-size="10" lengthAdjust="spacingAndGlyphs" textLength="86" x="56.25" y="683.1797">CIM_DiskPartition</text><line style="stroke: #A80036; stroke-width: 1.5;" x1="32.25" x2="144.25" y1="693" y2="693"/><line style="stroke: #A80036; stroke-width: 1.5;" x1="32.25" x2="144.25" y1="701" y2="701"/><rect fill="#FEFECE" filter="url(#f1)" height="44" style="stroke: #A80036; stroke-width: 1.5;" width="151" x="262" y="444"/><ellipse cx="275" cy="458" fill="#ADD1B2" rx="9" ry="9" style="stroke: #A80036; stroke-width: 1.0;"/><path d="M276.2813,461.2969 Q275.9375,461.4688 275.5625,461.5547 Q275.1875,461.6406 274.7656,461.6406 Q273.2969,461.6406 272.5234,460.6719 Q271.75,459.7031 271.75,457.8594 Q271.75,456.0156 272.5234,455.0469 Q273.2969,454.0781 274.7656,454.0781 Q275.1875,454.0781 275.5703,454.1641 Q275.9531,454.25 276.2813,454.4219 L276.2813,456.0313 Q275.9063,455.6875 275.5547,455.5313 Q275.2031,455.375 274.8438,455.375 Q274.0469,455.375 273.6406,456 Q273.2344,456.625 273.2344,457.8594 Q273.2344,459.0938 273.6406,459.7188 Q274.0469,460.3438 274.8438,460.3438 Q275.2031,460.3438 275.5547,460.1875 Q275.9063,460.0313 276.2813,459.6875 L276.2813,461.2969 Z "/><text fill="#000000" font-family="Monospace" font-size="10" lengthAdjust="spacingAndGlyphs" textLength="123" x="287" y="462.1797">CIM_GenericDiskPartition</text><line style="stroke: #A80036; stroke-width: 1.5;" x1="263" x2="412" y1="472" y2="472"/><line style="stroke: #A80036; stroke-width: 1.5;" x1="263" x2="412" y1="480" y2="480"/><a xlink:href="LMI_MDRAIDStorageExtent.html" xlink:title="LMI_MDRAIDStorageExtent.html"><rect fill="#FEFECE" filter="url(#f1)" height="78.9219" style="stroke: #A80036; stroke-width: 1.5;" width="165" x="448" y="426.5"/><ellipse cx="461" cy="440.5" fill="#ADD1B2" rx="9" ry="9" style="stroke: #A80036; stroke-width: 1.0;"/><path d="M462.2813,443.7969 Q461.9375,443.9688 461.5625,444.0547 Q461.1875,444.1406 460.7656,444.1406 Q459.2969,444.1406 458.5234,443.1719 Q457.75,442.2031 457.75,440.3594 Q457.75,438.5156 458.5234,437.5469 Q459.2969,436.5781 460.7656,436.5781 Q461.1875,436.5781 461.5703,436.6641 Q461.9531,436.75 462.2813,436.9219 L462.2813,438.5313 Q461.9063,438.1875 461.5547,438.0313 Q461.2031,437.875 460.8438,437.875 Q460.0469,437.875 459.6406,438.5 Q459.2344,439.125 459.2344,440.3594 Q459.2344,441.5938 459.6406,442.2188 Q460.0469,442.8438 460.8438,442.8438 Q461.2031,442.8438 461.5547,442.6875 Q461.9063,442.5313 462.2813,442.1875 L462.2813,443.7969 Z "/><text fill="#000000" font-family="Monospace" font-size="10" lengthAdjust="spacingAndGlyphs" textLength="137" x="473" y="444.6797">LMI_MDRAIDStorageExtent</text><line style="stroke: #A80036; stroke-width: 1.5;" x1="449" x2="612" y1="454.5" y2="454.5"/><text fill="#000000" font-family="Monospace" font-size="10" lengthAdjust="spacingAndGlyphs" textLength="101" x="454" y="468.5">string ElementName</text><text fill="#000000" font-family="Monospace" font-size="10" lengthAdjust="spacingAndGlyphs" textLength="59" x="454" y="480.1406">uint16 Level</text><text fill="#000000" font-family="Monospace" font-size="10" lengthAdjust="spacingAndGlyphs" textLength="57" x="454" y="491.7813">string UUID</text><line style="stroke: #A80036; stroke-width: 1.5;" x1="449" x2="612" y1="497.4219" y2="497.4219"/></a><a xlink:href="LMI_StorageExtent.html" xlink:title="LMI_StorageExtent.html"><rect fill="#FEFECE" filter="url(#f1)" height="253.5313" style="stroke: #A80036; stroke-width: 1.5;" width="165" x="448" y="112"/><ellipse cx="479.9" cy="126" fill="#ADD1B2" rx="9" ry="9" style="stroke: #A80036; stroke-width: 1.0;"/><path d="M481.1813,129.2969 Q480.8375,129.4688 480.4625,129.5547 Q480.0875,129.6406 479.6656,129.6406 Q478.1969,129.6406 477.4234,128.6719 Q476.65,127.7031 476.65,125.8594 Q476.65,124.0156 477.4234,123.0469 Q478.1969,122.0781 479.6656,122.0781 Q480.0875,122.0781 480.4703,122.1641 Q480.8531,122.25 481.1813,122.4219 L481.1813,124.0313 Q480.8063,123.6875 480.4547,123.5313 Q480.1031,123.375 479.7438,123.375 Q478.9469,123.375 478.5406,124 Q478.1344,124.625 478.1344,125.8594 Q478.1344,127.0938 478.5406,127.7188 Q478.9469,128.3438 479.7438,128.3438 Q480.1031,128.3438 480.4547,128.1875 Q480.8063,128.0313 481.1813,127.6875 L481.1813,129.2969 Z "/><text fill="#000000" font-family="Monospace" font-size="10" lengthAdjust="spacingAndGlyphs" textLength="95" x="496.1" y="130.1797">LMI_StorageExtent</text><line style="stroke: #A80036; stroke-width: 1.5;" x1="449" x2="612" y1="140" y2="140"/><text fill="#000000" font-family="Monospace" font-size="10" lengthAdjust="spacingAndGlyphs" textLength="78" x="454" y="154">uint64 BlockSize</text><text fill="#000000" font-family="Monospace" font-size="10" lengthAdjust="spacingAndGlyphs" textLength="124" x="454" y="165.6406">uint64 ConsumableBlocks</text><text fill="#000000" font-family="Monospace" font-size="10" lengthAdjust="spacingAndGlyphs" textLength="117" x="454" y="177.2813">uint16 DataRedundancy</text><text fill="#000000" font-family="Monospace" font-size="10" lengthAdjust="spacingAndGlyphs" textLength="101" x="454" y="188.9219">string ElementName</text><text fill="#000000" font-family="Monospace" font-size="10" lengthAdjust="spacingAndGlyphs" textLength="135" x="454" y="200.5625">string[] ExtentDiscriminator</text><text fill="#000000" font-family="Monospace" font-size="10" lengthAdjust="spacingAndGlyphs" textLength="106" x="454" y="212.2031">uint16[] ExtentStatus</text><text fill="#000000" font-family="Monospace" font-size="10" lengthAdjust="spacingAndGlyphs" textLength="129" x="454" y="223.8438">uint64 ExtentStripeLength</text><text fill="#000000" font-family="Monospace" font-size="10" lengthAdjust="spacingAndGlyphs" textLength="82" x="454" y="235.4844">string InstanceID</text><text fill="#000000" font-family="Monospace" font-size="10" lengthAdjust="spacingAndGlyphs" textLength="102" x="454" y="247.125">boolean IsComposite</text><text fill="#000000" font-family="Monospace" font-size="10" lengthAdjust="spacingAndGlyphs" textLength="60" x="454" y="258.7656">string Name</text><text fill="#000000" font-family="Monospace" font-size="10" lengthAdjust="spacingAndGlyphs" textLength="99" x="454" y="270.4063">uint16 NameFormat</text><text fill="#000000" font-family="Monospace" font-size="10" lengthAdjust="spacingAndGlyphs" textLength="121" x="454" y="282.0469">uint16 NameNamespace</text><text fill="#000000" font-family="Monospace" font-size="10" lengthAdjust="spacingAndGlyphs" textLength="73" x="454" y="293.6875">string[] Names</text><text fill="#000000" font-family="Monospace" font-size="10" lengthAdjust="spacingAndGlyphs" textLength="153" x="454" y="305.3281">boolean NoSinglePointOfFailure</text><text fill="#000000" font-family="Monospace" font-size="10" lengthAdjust="spacingAndGlyphs" textLength="115" x="454" y="316.9688">uint64 NumberOfBlocks</text><text fill="#000000" font-family="Monospace" font-size="10" lengthAdjust="spacingAndGlyphs" textLength="129" x="454" y="328.6094">uint16[] OperationalStatus</text><text fill="#000000" font-family="Monospace" font-size="10" lengthAdjust="spacingAndGlyphs" textLength="134" x="454" y="340.25">uint16 PackageRedundancy</text><text fill="#000000" font-family="Monospace" font-size="10" lengthAdjust="spacingAndGlyphs" textLength="90" x="454" y="351.8906">boolean Primordial</text><line style="stroke: #A80036; stroke-width: 1.5;" x1="449" x2="612" y1="357.5313" y2="357.5313"/></a><rect fill="#FEFECE" filter="url(#f1)" height="44" style="stroke: #A80036; stroke-width: 1.5;" width="125" x="378" y="8"/><ellipse cx="391" cy="22" fill="#ADD1B2" rx="9" ry="9" style="stroke: #A80036; stroke-width: 1.0;"/><path d="M392.2813,25.2969 Q391.9375,25.4688 391.5625,25.5547 Q391.1875,25.6406 390.7656,25.6406 Q389.2969,25.6406 388.5234,24.6719 Q387.75,23.7031 387.75,21.8594 Q387.75,20.0156 388.5234,19.0469 Q389.2969,18.0781 390.7656,18.0781 Q391.1875,18.0781 391.5703,18.1641 Q391.9531,18.25 392.2813,18.4219 L392.2813,20.0313 Q391.9063,19.6875 391.5547,19.5313 Q391.2031,19.375 390.8438,19.375 Q390.0469,19.375 389.6406,20 Q389.2344,20.625 389.2344,21.8594 Q389.2344,23.0938 389.6406,23.7188 Q390.0469,24.3438 390.8438,24.3438 Q391.2031,24.3438 391.5547,24.1875 Q391.9063,24.0313 392.2813,23.6875 L392.2813,25.2969 Z "/><text fill="#000000" font-family="Monospace" font-size="10" lengthAdjust="spacingAndGlyphs" textLength="97" x="403" y="26.1797">CIM_StorageExtent</text><line style="stroke: #A80036; stroke-width: 1.5;" x1="379" x2="502" y1="36" y2="36"/><line style="stroke: #A80036; stroke-width: 1.5;" x1="379" x2="502" y1="44" y2="44"/><rect fill="#FEFECE" filter="url(#f1)" height="44" style="stroke: #A80036; stroke-width: 1.5;" width="123" x="283" y="217"/><ellipse cx="296" cy="231" fill="#ADD1B2" rx="9" ry="9" style="stroke: #A80036; stroke-width: 1.0;"/><path d="M297.2813,234.2969 Q296.9375,234.4688 296.5625,234.5547 Q296.1875,234.6406 295.7656,234.6406 Q294.2969,234.6406 293.5234,233.6719 Q292.75,232.7031 292.75,230.8594 Q292.75,229.0156 293.5234,228.0469 Q294.2969,227.0781 295.7656,227.0781 Q296.1875,227.0781 296.5703,227.1641 Q296.9531,227.25 297.2813,227.4219 L297.2813,229.0313 Q296.9063,228.6875 296.5547,228.5313 Q296.2031,228.375 295.8438,228.375 Q295.0469,228.375 294.6406,229 Q294.2344,229.625 294.2344,230.8594 Q294.2344,232.0938 294.6406,232.7188 Q295.0469,233.3438 295.8438,233.3438 Q296.2031,233.3438 296.5547,233.1875 Q296.9063,233.0313 297.2813,232.6875 L297.2813,234.2969 Z "/><text fill="#000000" font-family="Monospace" font-size="10" lengthAdjust="spacingAndGlyphs" textLength="95" x="308" y="235.1797">CIM_MediaPartition</text><line style="stroke: #A80036; stroke-width: 1.5;" x1="284" x2="405" y1="245" y2="245"/><line style="stroke: #A80036; stroke-width: 1.5;" x1="284" x2="405" y1="253" y2="253"/><rect fill="#FEFECE" filter="url(#f1)" height="44" style="stroke: #A80036; stroke-width: 1.5;" width="142" x="180.25" y="665"/><ellipse cx="193.25" cy="679" fill="#ADD1B2" rx="9" ry="9" style="stroke: #A80036; stroke-width: 1.0;"/><path d="M194.5313,682.2969 Q194.1875,682.4688 193.8125,682.5547 Q193.4375,682.6406 193.0156,682.6406 Q191.5469,682.6406 190.7734,681.6719 Q190,680.7031 190,678.8594 Q190,677.0156 190.7734,676.0469 Q191.5469,675.0781 193.0156,675.0781 Q193.4375,675.0781 193.8203,675.1641 Q194.2031,675.25 194.5313,675.4219 L194.5313,677.0313 Q194.1563,676.6875 193.8047,676.5313 Q193.4531,676.375 193.0938,676.375 Q192.2969,676.375 191.8906,677 Q191.4844,677.625 191.4844,678.8594 Q191.4844,680.0938 191.8906,680.7188 Q192.2969,681.3438 193.0938,681.3438 Q193.4531,681.3438 193.8047,681.1875 Q194.1563,681.0313 194.5313,680.6875 L194.5313,682.2969 Z "/><text fill="#000000" font-family="Monospace" font-size="10" lengthAdjust="spacingAndGlyphs" textLength="114" x="205.25" y="683.1797">CIM_VTOCDiskPartition</text><line style="stroke: #A80036; stroke-width: 1.5;" x1="181.25" x2="321.25" y1="693" y2="693"/><line style="stroke: #A80036; stroke-width: 1.5;" x1="181.25" x2="321.25" y1="701" y2="701"/><a xlink:href="LMI_LUKSStorageExtent.html" xlink:title="LMI_LUKSStorageExtent.html"><rect fill="#FEFECE" filter="url(#f1)" height="44" style="stroke: #A80036; stroke-width: 1.5;" width="151" x="648" y="217"/><ellipse cx="661" cy="231" fill="#ADD1B2" rx="9" ry="9" style="stroke: #A80036; stroke-width: 1.0;"/><path d="M662.2813,234.2969 Q661.9375,234.4688 661.5625,234.5547 Q661.1875,234.6406 660.7656,234.6406 Q659.2969,234.6406 658.5234,233.6719 Q657.75,232.7031 657.75,230.8594 Q657.75,229.0156 658.5234,228.0469 Q659.2969,227.0781 660.7656,227.0781 Q661.1875,227.0781 661.5703,227.1641 Q661.9531,227.25 662.2813,227.4219 L662.2813,229.0313 Q661.9063,228.6875 661.5547,228.5313 Q661.2031,228.375 660.8438,228.375 Q660.0469,228.375 659.6406,229 Q659.2344,229.625 659.2344,230.8594 Q659.2344,232.0938 659.6406,232.7188 Q660.0469,233.3438 660.8438,233.3438 Q661.2031,233.3438 661.5547,233.1875 Q661.9063,233.0313 662.2813,232.6875 L662.2813,234.2969 Z "/><text fill="#000000" font-family="Monospace" font-size="10" lengthAdjust="spacingAndGlyphs" textLength="123" x="673" y="235.1797">LMI_LUKSStorageExtent</text><line style="stroke: #A80036; stroke-width: 1.5;" x1="649" x2="798" y1="245" y2="245"/><line style="stroke: #A80036; stroke-width: 1.5;" x1="649" x2="798" y1="253" y2="253"/></a><rect fill="#FEFECE" filter="url(#f1)" height="44" style="stroke: #A80036; stroke-width: 1.5;" width="136" x="655.25" y="8"/><ellipse cx="668.25" cy="22" fill="#ADD1B2" rx="9" ry="9" style="stroke: #A80036; stroke-width: 1.0;"/><path d="M669.5313,25.2969 Q669.1875,25.4688 668.8125,25.5547 Q668.4375,25.6406 668.0156,25.6406 Q666.5469,25.6406 665.7734,24.6719 Q665,23.7031 665,21.8594 Q665,20.0156 665.7734,19.0469 Q666.5469,18.0781 668.0156,18.0781 Q668.4375,18.0781 668.8203,18.1641 Q669.2031,18.25 669.5313,18.4219 L669.5313,20.0313 Q669.1563,19.6875 668.8047,19.5313 Q668.4531,19.375 668.0938,19.375 Q667.2969,19.375 666.8906,20 Q666.4844,20.625 666.4844,21.8594 Q666.4844,23.0938 666.8906,23.7188 Q667.2969,24.3438 668.0938,24.3438 Q668.4531,24.3438 668.8047,24.1875 Q669.1563,24.0313 669.5313,23.6875 L669.5313,25.2969 Z "/><text fill="#000000" font-family="Monospace" font-size="10" lengthAdjust="spacingAndGlyphs" textLength="108" x="680.25" y="26.1797">LMI_EncryptionExtent</text><line style="stroke: #A80036; stroke-width: 1.5;" x1="656.25" x2="790.25" y1="36" y2="36"/><line style="stroke: #A80036; stroke-width: 1.5;" x1="656.25" x2="790.25" y1="44" y2="44"/><rect fill="#FEFECE" filter="url(#f1)" height="44" style="stroke: #A80036; stroke-width: 1.5;" width="134" x="357.25" y="665"/><ellipse cx="370.25" cy="679" fill="#ADD1B2" rx="9" ry="9" style="stroke: #A80036; stroke-width: 1.0;"/><path d="M371.5313,682.2969 Q371.1875,682.4688 370.8125,682.5547 Q370.4375,682.6406 370.0156,682.6406 Q368.5469,682.6406 367.7734,681.6719 Q367,680.7031 367,678.8594 Q367,677.0156 367.7734,676.0469 Q368.5469,675.0781 370.0156,675.0781 Q370.4375,675.0781 370.8203,675.1641 Q371.2031,675.25 371.5313,675.4219 L371.5313,677.0313 Q371.1563,676.6875 370.8047,676.5313 Q370.4531,676.375 370.0938,676.375 Q369.2969,676.375 368.8906,677 Q368.4844,677.625 368.4844,678.8594 Q368.4844,680.0938 368.8906,680.7188 Q369.2969,681.3438 370.0938,681.3438 Q370.4531,681.3438 370.8047,681.1875 Q371.1563,681.0313 371.5313,680.6875 L371.5313,682.2969 Z "/><text fill="#000000" font-family="Monospace" font-size="10" lengthAdjust="spacingAndGlyphs" textLength="106" x="382.25" y="683.1797">CIM_GPTDiskPartition</text><line style="stroke: #A80036; stroke-width: 1.5;" x1="358.25" x2="490.25" y1="693" y2="693"/><line style="stroke: #A80036; stroke-width: 1.5;" x1="358.25" x2="490.25" y1="701" y2="701"/><a xlink:href="LMI_LVStorageExtent.html" xlink:title="LMI_LVStorageExtent.html"><rect fill="#FEFECE" filter="url(#f1)" height="67.2813" style="stroke: #A80036; stroke-width: 1.5;" width="136" x="648.25" y="432.5"/><ellipse cx="661.25" cy="446.5" fill="#ADD1B2" rx="9" ry="9" style="stroke: #A80036; stroke-width: 1.0;"/><path d="M662.5313,449.7969 Q662.1875,449.9688 661.8125,450.0547 Q661.4375,450.1406 661.0156,450.1406 Q659.5469,450.1406 658.7734,449.1719 Q658,448.2031 658,446.3594 Q658,444.5156 658.7734,443.5469 Q659.5469,442.5781 661.0156,442.5781 Q661.4375,442.5781 661.8203,442.6641 Q662.2031,442.75 662.5313,442.9219 L662.5313,444.5313 Q662.1563,444.1875 661.8047,444.0313 Q661.4531,443.875 661.0938,443.875 Q660.2969,443.875 659.8906,444.5 Q659.4844,445.125 659.4844,446.3594 Q659.4844,447.5938 659.8906,448.2188 Q660.2969,448.8438 661.0938,448.8438 Q661.4531,448.8438 661.8047,448.6875 Q662.1563,448.5313 662.5313,448.1875 L662.5313,449.7969 Z "/><text fill="#000000" font-family="Monospace" font-size="10" lengthAdjust="spacingAndGlyphs" textLength="108" x="673.25" y="450.6797">LMI_LVStorageExtent</text><line style="stroke: #A80036; stroke-width: 1.5;" x1="649.25" x2="783.25" y1="460.5" y2="460.5"/><text fill="#000000" font-family="Monospace" font-size="10" lengthAdjust="spacingAndGlyphs" textLength="101" x="654.25" y="474.5">string ElementName</text><text fill="#000000" font-family="Monospace" font-size="10" lengthAdjust="spacingAndGlyphs" textLength="57" x="654.25" y="486.1406">string UUID</text><line style="stroke: #A80036; stroke-width: 1.5;" x1="649.25" x2="783.25" y1="491.7813" y2="491.7813"/></a><a xlink:href="LMI_GenericDiskPartition.html" xlink:title="LMI_GenericDiskPartition.html"><rect fill="#FEFECE" filter="url(#f1)" height="241.8906" style="stroke: #A80036; stroke-width: 1.5;" width="165" x="527" y="566"/><ellipse cx="547.2" cy="580" fill="#ADD1B2" rx="9" ry="9" style="stroke: #A80036; stroke-width: 1.0;"/><path d="M548.4813,583.2969 Q548.1375,583.4688 547.7625,583.5547 Q547.3875,583.6406 546.9656,583.6406 Q545.4969,583.6406 544.7234,582.6719 Q543.95,581.7031 543.95,579.8594 Q543.95,578.0156 544.7234,577.0469 Q545.4969,576.0781 546.9656,576.0781 Q547.3875,576.0781 547.7703,576.1641 Q548.1531,576.25 548.4813,576.4219 L548.4813,578.0313 Q548.1063,577.6875 547.7547,577.5313 Q547.4031,577.375 547.0438,577.375 Q546.2469,577.375 545.8406,578 Q545.4344,578.625 545.4344,579.8594 Q545.4344,581.0938 545.8406,581.7188 Q546.2469,582.3438 547.0438,582.3438 Q547.4031,582.3438 547.7547,582.1875 Q548.1063,582.0313 548.4813,581.6875 L548.4813,583.2969 Z "/><text fill="#000000" font-family="Monospace" font-size="10" lengthAdjust="spacingAndGlyphs" textLength="121" x="560.8" y="584.1797">LMI_GenericDiskPartition</text><line style="stroke: #A80036; stroke-width: 1.5;" x1="528" x2="691" y1="594" y2="594"/><text fill="#000000" font-family="Monospace" font-size="10" lengthAdjust="spacingAndGlyphs" textLength="78" x="533" y="608">uint64 BlockSize</text><text fill="#000000" font-family="Monospace" font-size="10" lengthAdjust="spacingAndGlyphs" textLength="124" x="533" y="619.6406">uint64 ConsumableBlocks</text><text fill="#000000" font-family="Monospace" font-size="10" lengthAdjust="spacingAndGlyphs" textLength="117" x="533" y="631.2813">uint16 DataRedundancy</text><text fill="#000000" font-family="Monospace" font-size="10" lengthAdjust="spacingAndGlyphs" textLength="101" x="533" y="642.9219">string ElementName</text><text fill="#000000" font-family="Monospace" font-size="10" lengthAdjust="spacingAndGlyphs" textLength="135" x="533" y="654.5625">string[] ExtentDiscriminator</text><text fill="#000000" font-family="Monospace" font-size="10" lengthAdjust="spacingAndGlyphs" textLength="106" x="533" y="666.2031">uint16[] ExtentStatus</text><text fill="#000000" font-family="Monospace" font-size="10" lengthAdjust="spacingAndGlyphs" textLength="129" x="533" y="677.8438">uint64 ExtentStripeLength</text><text fill="#000000" font-family="Monospace" font-size="10" lengthAdjust="spacingAndGlyphs" textLength="82" x="533" y="689.4844">string InstanceID</text><text fill="#000000" font-family="Monospace" font-size="10" lengthAdjust="spacingAndGlyphs" textLength="60" x="533" y="701.125">string Name</text><text fill="#000000" font-family="Monospace" font-size="10" lengthAdjust="spacingAndGlyphs" textLength="99" x="533" y="712.7656">uint16 NameFormat</text><text fill="#000000" font-family="Monospace" font-size="10" lengthAdjust="spacingAndGlyphs" textLength="121" x="533" y="724.4063">uint16 NameNamespace</text><text fill="#000000" font-family="Monospace" font-size="10" lengthAdjust="spacingAndGlyphs" textLength="73" x="533" y="736.0469">string[] Names</text><text fill="#000000" font-family="Monospace" font-size="10" lengthAdjust="spacingAndGlyphs" textLength="153" x="533" y="747.6875">boolean NoSinglePointOfFailure</text><text fill="#000000" font-family="Monospace" font-size="10" lengthAdjust="spacingAndGlyphs" textLength="115" x="533" y="759.3281">uint64 NumberOfBlocks</text><text fill="#000000" font-family="Monospace" font-size="10" lengthAdjust="spacingAndGlyphs" textLength="129" x="533" y="770.9688">uint16[] OperationalStatus</text><text fill="#000000" font-family="Monospace" font-size="10" lengthAdjust="spacingAndGlyphs" textLength="134" x="533" y="782.6094">uint16 PackageRedundancy</text><text fill="#000000" font-family="Monospace" font-size="10" lengthAdjust="spacingAndGlyphs" textLength="90" x="533" y="794.25">boolean Primordial</text><line style="stroke: #A80036; stroke-width: 1.5;" x1="528" x2="691" y1="799.8906" y2="799.8906"/></a><path d="M88.25,729.614 C88.25,765.221 88.25,818.479 88.25,868.337 " fill="none" style="stroke: #A80036; stroke-width: 1.0;"/><polygon fill="none" points="81.2501,729.445,88.25,709.445,95.2501,729.445,81.2501,729.445" style="stroke: #A80036; stroke-width: 1.0;"/><path d="M266.581,496.792 C232.352,513.616 192.27,537.093 162.25,566 C132.101,595.031 109.212,638.821 97.3356,664.699 " fill="none" style="stroke: #A80036; stroke-width: 1.0;"/><polygon fill="none" points="263.821,490.354,284.894,488.137,269.802,503.011,263.821,490.354" style="stroke: #A80036; stroke-width: 1.0;"/><path d="M530.25,386.475 C530.25,400.96 530.25,414.616 530.25,426.351 " fill="none" style="stroke: #A80036; stroke-width: 1.0;"/><polygon fill="none" points="523.25,386.312,530.25,366.312,537.25,386.312,523.25,386.312" style="stroke: #A80036; stroke-width: 1.0;"/><path d="M457.545,70.78 C462.825,82.92 468.939,96.98 475.333,111.69 " fill="none" style="stroke: #A80036; stroke-width: 1.0;"/><polygon fill="none" points="451.098,73.51,449.543,52.37,463.937,67.92,451.098,73.51" style="stroke: #A80036; stroke-width: 1.0;"/><path d="M421.843,70.69 C401.66,114.21 370.031,182.41 354.108,216.743 " fill="none" style="stroke: #A80036; stroke-width: 1.0;"/><polygon fill="none" points="415.573,67.57,430.338,52.37,428.274,73.46,415.573,67.57" style="stroke: #A80036; stroke-width: 1.0;"/><path d="M321.443,507.253 C303.181,553.757 273.822,628.521 259.56,664.838 " fill="none" style="stroke: #A80036; stroke-width: 1.0;"/><polygon fill="none" points="315.021,504.455,328.847,488.397,328.053,509.572,315.021,504.455" style="stroke: #A80036; stroke-width: 1.0;"/><path d="M723.25,72.47 C723.25,116.05 723.25,182.875 723.25,216.743 " fill="none" style="stroke: #A80036; stroke-width: 1.0;"/><polygon fill="none" points="716.25,72.37,723.25,52.37,730.25,72.37,716.25,72.37" style="stroke: #A80036; stroke-width: 1.0;"/><path d="M353.241,507.253 C371.715,553.757 401.416,628.521 415.843,664.838 " fill="none" style="stroke: #A80036; stroke-width: 1.0;"/><polygon fill="none" points="346.629,509.569,345.75,488.397,359.64,504.4,346.629,509.569" style="stroke: #A80036; stroke-width: 1.0;"/><path d="M625.327,360.051 C626.977,362.052 628.619,364.036 630.25,366 C648.868,388.419 670.368,413.169 687.214,432.314 " fill="none" style="stroke: #A80036; stroke-width: 1.0;"/><polygon fill="none" points="619.814,364.368,612.565,344.457,630.649,355.501,619.814,364.368" style="stroke: #A80036; stroke-width: 1.0;"/><path d="M342.969,281.174 C341.477,329.139 339.069,406.543 337.912,443.725 " fill="none" style="stroke: #A80036; stroke-width: 1.0;"/><polygon fill="none" points="335.973,280.94,343.591,261.167,349.966,281.375,335.973,280.94" style="stroke: #A80036; stroke-width: 1.0;"/><path d="M401.082,497.181 C434.781,514.733 475.763,538.749 508.25,566 C514.509,571.25 520.688,576.918 526.719,582.833 " fill="none" style="stroke: #A80036; stroke-width: 1.0;"/><polygon fill="none" points="397.88,503.406,383.21,488.116,404.213,490.921,397.88,503.406" style="stroke: #A80036; stroke-width: 1.0;"/></g></svg>