<?xml version="1.0" encoding="UTF-8" standalone="yes"?><svg xmlns="http://www.w3.org/2000/svg" xmlns:xlink="http://www.w3.org/1999/xlink" height="1142pt" style="width:817px;height:1142px;" version="1.1" viewBox="0 0 817 1142" width="817pt"><defs><filter height="300%" id="f1" width="300%" x="-1" y="-1"><feGaussianBlur result="blurOut" stdDeviation="2"/><feColorMatrix in="blurOut" result="blurOut2" type="matrix" values="0 0 0 0 0 0 0 0 0 0 0 0 0 0 0 0 0 0 .4 0"/><feOffset dx="4" dy="4" in="blurOut2" result="blurOut3"/><feBlend in="SourceGraphic" in2="blurOut3" mode="normal"/></filter></defs><g><a xlink:href="LMI_DiskPartition.html" xlink:title="LMI_DiskPartition.html"><rect fill="#FEFECE" filter="url(#f1)" height="265.1719" style="stroke: #A80036; stroke-width: 1.5;" width="165" x="122" y="868.5"/><ellipse cx="158.85" cy="882.5" fill="#ADD1B2" rx="9" ry="9" style="stroke: #A80036; stroke-width: 1.0;"/><path d="M160.1313,885.7969 Q159.7875,885.9688 159.4125,886.0547 Q159.0375,886.1406 158.6156,886.1406 Q157.1469,886.1406 156.3734,885.1719 Q155.6,884.2031 155.6,882.3594 Q155.6,880.5156 156.3734,879.5469 Q157.1469,878.5781 158.6156,878.5781 Q159.0375,878.5781 159.4203,878.6641 Q159.8031,878.75 160.1313,878.9219 L160.1313,880.5313 Q159.7563,880.1875 159.4047,880.0313 Q159.0531,879.875 158.6938,879.875 Q157.8969,879.875 157.4906,880.5 Q157.0844,881.125 157.0844,882.3594 Q157.0844,883.5938 157.4906,884.2188 Q157.8969,884.8438 158.6938,884.8438 Q159.0531,884.8438 159.4047,884.6875 Q159.7563,884.5313 160.1313,884.1875 L160.1313,885.7969 Z "/><text fill="#000000" font-family="Monospace" font-size="10" lengthAdjust="spacingAndGlyphs" textLength="84" x="176.15" y="886.6797">LMI_DiskPartition</text><line style="stroke: #A80036; stroke-width: 1.5;" x1="123" x2="286" y1="896.5" y2="896.5"/><text fill="#000000" font-family="Monospace" font-size="10" lengthAdjust="spacingAndGlyphs" textLength="78" x="128" y="910.5">uint64 BlockSize</text><text fill="#000000" font-family="Monospace" font-size="10" lengthAdjust="spacingAndGlyphs" textLength="124" x="128" y="922.1406">uint64 ConsumableBlocks</text><text fill="#000000" font-family="Monospace" font-size="10" lengthAdjust="spacingAndGlyphs" textLength="117" x="128" y="933.7813">uint16 DataRedundancy</text><text fill="#000000" font-family="Monospace" font-size="10" lengthAdjust="spacingAndGlyphs" textLength="101" x="128" y="945.4219">string ElementName</text><text fill="#000000" font-family="Monospace" font-size="10" lengthAdjust="spacingAndGlyphs" textLength="135" x="128" y="957.0625">string[] ExtentDiscriminator</text><text fill="#000000" font-family="Monospace" font-size="10" lengthAdjust="spacingAndGlyphs" textLength="106" x="128" y="968.7031">uint16[] ExtentStatus</text><text fill="#000000" font-family="Monospace" font-size="10" lengthAdjust="spacingAndGlyphs" textLength="129" x="128" y="980.3438">uint64 ExtentStripeLength</text><text fill="#000000" font-family="Monospace" font-size="10" lengthAdjust="spacingAndGlyphs" textLength="82" x="128" y="991.9844">string InstanceID</text><text fill="#000000" font-family="Monospace" font-size="10" lengthAdjust="spacingAndGlyphs" textLength="60" x="128" y="1003.625">string Name</text><text fill="#000000" font-family="Monospace" font-size="10" lengthAdjust="spacingAndGlyphs" textLength="99" x="128" y="1015.2656">uint16 NameFormat</text><text fill="#000000" font-family="Monospace" font-size="10" lengthAdjust="spacingAndGlyphs" textLength="121" x="128" y="1026.9063">uint16 NameNamespace</text><text fill="#000000" font-family="Monospace" font-size="10" lengthAdjust="spacingAndGlyphs" textLength="73" x="128" y="1038.5469">string[] Names</text><text fill="#000000" font-family="Monospace" font-size="10" lengthAdjust="spacingAndGlyphs" textLength="153" x="128" y="1050.1875">boolean NoSinglePointOfFailure</text><text fill="#000000" font-family="Monospace" font-size="10" lengthAdjust="spacingAndGlyphs" textLength="115" x="128" y="1061.8281">uint64 NumberOfBlocks</text><text fill="#000000" font-family="Monospace" font-size="10" lengthAdjust="spacingAndGlyphs" textLength="129" x="128" y="1073.4688">uint16[] OperationalStatus</text><text fill="#000000" font-family="Monospace" font-size="10" lengthAdjust="spacingAndGlyphs" textLength="134" x="128" y="1085.1094">uint16 PackageRedundancy</text><text fill="#000000" font-family="Monospace" font-size="10" lengthAdjust="spacingAndGlyphs" textLength="97" x="128" y="1096.75">uint16 PartitionType</text><text fill="#000000" font-family="Monospace" font-size="10" lengthAdjust="spacingAndGlyphs" textLength="121" x="128" y="1108.3906">boolean PrimaryPartition</text><text fill="#000000" font-family="Monospace" font-size="10" lengthAdjust="spacingAndGlyphs" textLength="90" x="128" y="1120.0313">boolean Primordial</text><line style="stroke: #A80036; stroke-width: 1.5;" x1="123" x2="286" y1="1125.6719" y2="1125.6719"/></a><rect fill="#FEFECE" filter="url(#f1)" height="44" style="stroke: #A80036; stroke-width: 1.5;" width="114" x="147.25" y="665"/><ellipse cx="160.25" cy="679" fill="#ADD1B2" rx="9" ry="9" style="stroke: #A80036; stroke-width: 1.0;"/><path d="M161.5313,682.2969 Q161.1875,682.4688 160.8125,682.5547 Q160.4375,682.6406 160.0156,682.6406 Q158.5469,682.6406 157.7734,681.6719 Q157,680.7031 157,678.8594 Q157,677.0156 157.7734,676.0469 Q158.5469,675.0781 160.0156,675.0781 Q160.4375,675.0781 160.8203,675.1641 Q161.2031,675.25 161.5313,675.4219 L161.5313,677.0313 Q161.1563,676.6875 160.8047,676.5313 Q160.4531,676.375 160.0938,676.375 Q159.2969,676.375 158.8906,677 Q158.4844,677.625 158.4844,678.8594 Q158.4844,680.0938 158.8906,680.7188 Q159.2969,681.3438 160.0938,681.3438 Q160.4531,681.3438 160.8047,681.1875 Q161.1563,681.0313 161.5313,680.6875 L161.5313,682.2969 Z "/><text fill="#000000" font-family="Monospace" font-size="10" lengthAdjust="spacingAndGlyphs" textLength="86" x="172.25" y="683.1797">CIM_DiskPartition</text><line style="stroke: #A80036; stroke-width: 1.5;" x1="148.25" x2="260.25" y1="693" y2="693"/><line style="stroke: #A80036; stroke-width: 1.5;" x1="148.25" x2="260.25" y1="701" y2="701"/><rect fill="#FEFECE" filter="url(#f1)" height="44" style="stroke: #A80036; stroke-width: 1.5;" width="151" x="378" y="444"/><ellipse cx="391" cy="458" fill="#ADD1B2" rx="9" ry="9" style="stroke: #A80036; stroke-width: 1.0;"/><path d="M392.2813,461.2969 Q391.9375,461.4688 391.5625,461.5547 Q391.1875,461.6406 390.7656,461.6406 Q389.2969,461.6406 388.5234,460.6719 Q387.75,459.7031 387.75,457.8594 Q387.75,456.0156 388.5234,455.0469 Q389.2969,454.0781 390.7656,454.0781 Q391.1875,454.0781 391.5703,454.1641 Q391.9531,454.25 392.2813,454.4219 L392.2813,456.0313 Q391.9063,455.6875 391.5547,455.5313 Q391.2031,455.375 390.8438,455.375 Q390.0469,455.375 389.6406,456 Q389.2344,456.625 389.2344,457.8594 Q389.2344,459.0938 389.6406,459.7188 Q390.0469,460.3438 390.8438,460.3438 Q391.2031,460.3438 391.5547,460.1875 Q391.9063,460.0313 392.2813,459.6875 L392.2813,461.2969 Z "/><text fill="#000000" font-family="Monospace" font-size="10" lengthAdjust="spacingAndGlyphs" textLength="123" x="403" y="462.1797">CIM_GenericDiskPartition</text><line style="stroke: #A80036; stroke-width: 1.5;" x1="379" x2="528" y1="472" y2="472"/><line style="stroke: #A80036; stroke-width: 1.5;" x1="379" x2="528" y1="480" y2="480"/><a xlink:href="LMI_MDRAIDStorageExtent.html" xlink:title="LMI_MDRAIDStorageExtent.html"><rect fill="#FEFECE" filter="url(#f1)" height="78.9219" style="stroke: #A80036; stroke-width: 1.5;" width="165" x="6" y="426.5"/><ellipse cx="19" cy="440.5" fill="#ADD1B2" rx="9" ry="9" style="stroke: #A80036; stroke-width: 1.0;"/><path d="M20.2813,443.7969 Q19.9375,443.9688 19.5625,444.0547 Q19.1875,444.1406 18.7656,444.1406 Q17.2969,444.1406 16.5234,443.1719 Q15.75,442.2031 15.75,440.3594 Q15.75,438.5156 16.5234,437.5469 Q17.2969,436.5781 18.7656,436.5781 Q19.1875,436.5781 19.5703,436.6641 Q19.9531,436.75 20.2813,436.9219 L20.2813,438.5313 Q19.9063,438.1875 19.5547,438.0313 Q19.2031,437.875 18.8438,437.875 Q18.0469,437.875 17.6406,438.5 Q17.2344,439.125 17.2344,440.3594 Q17.2344,441.5938 17.6406,442.2188 Q18.0469,442.8438 18.8438,442.8438 Q19.2031,442.8438 19.5547,442.6875 Q19.9063,442.5313 20.2813,442.1875 L20.2813,443.7969 Z "/><text fill="#000000" font-family="Monospace" font-size="10" lengthAdjust="spacingAndGlyphs" textLength="137" x="31" y="444.6797">LMI_MDRAIDStorageExtent</text><line style="stroke: #A80036; stroke-width: 1.5;" x1="7" x2="170" y1="454.5" y2="454.5"/><text fill="#000000" font-family="Monospace" font-size="10" lengthAdjust="spacingAndGlyphs" textLength="101" x="12" y="468.5">string ElementName</text><text fill="#000000" font-family="Monospace" font-size="10" lengthAdjust="spacingAndGlyphs" textLength="59" x="12" y="480.1406">uint16 Level</text><text fill="#000000" font-family="Monospace" font-size="10" lengthAdjust="spacingAndGlyphs" textLength="57" x="12" y="491.7813">string UUID</text><line style="stroke: #A80036; stroke-width: 1.5;" x1="7" x2="170" y1="497.4219" y2="497.4219"/></a><a xlink:href="LMI_StorageExtent.html" xlink:title="LMI_StorageExtent.html"><rect fill="#FEFECE" filter="url(#f1)" height="253.5313" style="stroke: #A80036; stroke-width: 1.5;" width="165" x="192" y="112"/><ellipse cx="223.9" cy="126" fill="#ADD1B2" rx="9" ry="9" style="stroke: #A80036; stroke-width: 1.0;"/><path d="M225.1813,129.2969 Q224.8375,129.4688 224.4625,129.5547 Q224.0875,129.6406 223.6656,129.6406 Q222.1969,129.6406 221.4234,128.6719 Q220.65,127.7031 220.65,125.8594 Q220.65,124.0156 221.4234,123.0469 Q222.1969,122.0781 223.6656,122.0781 Q224.0875,122.0781 224.4703,122.1641 Q224.8531,122.25 225.1813,122.4219 L225.1813,124.0313 Q224.8063,123.6875 224.4547,123.5313 Q224.1031,123.375 223.7438,123.375 Q222.9469,123.375 222.5406,124 Q222.1344,124.625 222.1344,125.8594 Q222.1344,127.0938 222.5406,127.7188 Q222.9469,128.3438 223.7438,128.3438 Q224.1031,128.3438 224.4547,128.1875 Q224.8063,128.0313 225.1813,127.6875 L225.1813,129.2969 Z "/><text fill="#000000" font-family="Monospace" font-size="10" lengthAdjust="spacingAndGlyphs" textLength="95" x="240.1" y="130.1797">LMI_StorageExtent</text><line style="stroke: #A80036; stroke-width: 1.5;" x1="193" x2="356" y1="140" y2="140"/><text fill="#000000" font-family="Monospace" font-size="10" lengthAdjust="spacingAndGlyphs" textLength="78" x="198" y="154">uint64 BlockSize</text><text fill="#000000" font-family="Monospace" font-size="10" lengthAdjust="spacingAndGlyphs" textLength="124" x="198" y="165.6406">uint64 ConsumableBlocks</text><text fill="#000000" font-family="Monospace" font-size="10" lengthAdjust="spacingAndGlyphs" textLength="117" x="198" y="177.2813">uint16 DataRedundancy</text><text fill="#000000" font-family="Monospace" font-size="10" lengthAdjust="spacingAndGlyphs" textLength="101" x="198" y="188.9219">string ElementName</text><text fill="#000000" font-family="Monospace" font-size="10" lengthAdjust="spacingAndGlyphs" textLength="135" x="198" y="200.5625">string[] ExtentDiscriminator</text><text fill="#000000" font-family="Monospace" font-size="10" lengthAdjust="spacingAndGlyphs" textLength="106" x="198" y="212.2031">uint16[] ExtentStatus</text><text fill="#000000" font-family="Monospace" font-size="10" lengthAdjust="spacingAndGlyphs" textLength="129" x="198" y="223.8438">uint64 ExtentStripeLength</text><text fill="#000000" font-family="Monospace" font-size="10" lengthAdjust="spacingAndGlyphs" textLength="82" x="198" y="235.4844">string InstanceID</text><text fill="#000000" font-family="Monospace" font-size="10" lengthAdjust="spacingAndGlyphs" textLength="102" x="198" y="247.125">boolean IsComposite</text><text fill="#000000" font-family="Monospace" font-size="10" lengthAdjust="spacingAndGlyphs" textLength="60" x="198" y="258.7656">string Name</text><text fill="#000000" font-family="Monospace" font-size="10" lengthAdjust="spacingAndGlyphs" textLength="99" x="198" y="270.4063">uint16 NameFormat</text><text fill="#000000" font-family="Monospace" font-size="10" lengthAdjust="spacingAndGlyphs" textLength="121" x="198" y="282.0469">uint16 NameNamespace</text><text fill="#000000" font-family="Monospace" font-size="10" lengthAdjust="spacingAndGlyphs" textLength="73" x="198" y="293.6875">string[] Names</text><text fill="#000000" font-family="Monospace" font-size="10" lengthAdjust="spacingAndGlyphs" textLength="153" x="198" y="305.3281">boolean NoSinglePointOfFailure</text><text fill="#000000" font-family="Monospace" font-size="10" lengthAdjust="spacingAndGlyphs" textLength="115" x="198" y="316.9688">uint64 NumberOfBlocks</text><text fill="#000000" font-family="Monospace" font-size="10" lengthAdjust="spacingAndGlyphs" textLength="129" x="198" y="328.6094">uint16[] OperationalStatus</text><text fill="#000000" font-family="Monospace" font-size="10" lengthAdjust="spacingAndGlyphs" textLength="134" x="198" y="340.25">uint16 PackageRedundancy</text><text fill="#000000" font-family="Monospace" font-size="10" lengthAdjust="spacingAndGlyphs" textLength="90" x="198" y="351.8906">boolean Primordial</text><line style="stroke: #A80036; stroke-width: 1.5;" x1="193" x2="356" y1="357.5313" y2="357.5313"/></a><rect fill="#FEFECE" filter="url(#f1)" height="44" style="stroke: #A80036; stroke-width: 1.5;" width="125" x="301" y="8"/><ellipse cx="314" cy="22" fill="#ADD1B2" rx="9" ry="9" style="stroke: #A80036; stroke-width: 1.0;"/><path d="M315.2813,25.2969 Q314.9375,25.4688 314.5625,25.5547 Q314.1875,25.6406 313.7656,25.6406 Q312.2969,25.6406 311.5234,24.6719 Q310.75,23.7031 310.75,21.8594 Q310.75,20.0156 311.5234,19.0469 Q312.2969,18.0781 313.7656,18.0781 Q314.1875,18.0781 314.5703,18.1641 Q314.9531,18.25 315.2813,18.4219 L315.2813,20.0313 Q314.9063,19.6875 314.5547,19.5313 Q314.2031,19.375 313.8438,19.375 Q313.0469,19.375 312.6406,20 Q312.2344,20.625 312.2344,21.8594 Q312.2344,23.0938 312.6406,23.7188 Q313.0469,24.3438 313.8438,24.3438 Q314.2031,24.3438 314.5547,24.1875 Q314.9063,24.0313 315.2813,23.6875 L315.2813,25.2969 Z "/><text fill="#000000" font-family="Monospace" font-size="10" lengthAdjust="spacingAndGlyphs" textLength="97" x="326" y="26.1797">CIM_StorageExtent</text><line style="stroke: #A80036; stroke-width: 1.5;" x1="302" x2="425" y1="36" y2="36"/><line style="stroke: #A80036; stroke-width: 1.5;" x1="302" x2="425" y1="44" y2="44"/><rect fill="#FEFECE" filter="url(#f1)" height="44" style="stroke: #A80036; stroke-width: 1.5;" width="123" x="392" y="217"/><ellipse cx="405" cy="231" fill="#ADD1B2" rx="9" ry="9" style="stroke: #A80036; stroke-width: 1.0;"/><path d="M406.2813,234.2969 Q405.9375,234.4688 405.5625,234.5547 Q405.1875,234.6406 404.7656,234.6406 Q403.2969,234.6406 402.5234,233.6719 Q401.75,232.7031 401.75,230.8594 Q401.75,229.0156 402.5234,228.0469 Q403.2969,227.0781 404.7656,227.0781 Q405.1875,227.0781 405.5703,227.1641 Q405.9531,227.25 406.2813,227.4219 L406.2813,229.0313 Q405.9063,228.6875 405.5547,228.5313 Q405.2031,228.375 404.8438,228.375 Q404.0469,228.375 403.6406,229 Q403.2344,229.625 403.2344,230.8594 Q403.2344,232.0938 403.6406,232.7188 Q404.0469,233.3438 404.8438,233.3438 Q405.2031,233.3438 405.5547,233.1875 Q405.9063,233.0313 406.2813,232.6875 L406.2813,234.2969 Z "/><text fill="#000000" font-family="Monospace" font-size="10" lengthAdjust="spacingAndGlyphs" textLength="95" x="417" y="235.1797">CIM_MediaPartition</text><line style="stroke: #A80036; stroke-width: 1.5;" x1="393" x2="514" y1="245" y2="245"/><line style="stroke: #A80036; stroke-width: 1.5;" x1="393" x2="514" y1="253" y2="253"/><rect fill="#FEFECE" filter="url(#f1)" height="44" style="stroke: #A80036; stroke-width: 1.5;" width="142" x="296.25" y="665"/><ellipse cx="309.25" cy="679" fill="#ADD1B2" rx="9" ry="9" style="stroke: #A80036; stroke-width: 1.0;"/><path d="M310.5313,682.2969 Q310.1875,682.4688 309.8125,682.5547 Q309.4375,682.6406 309.0156,682.6406 Q307.5469,682.6406 306.7734,681.6719 Q306,680.7031 306,678.8594 Q306,677.0156 306.7734,676.0469 Q307.5469,675.0781 309.0156,675.0781 Q309.4375,675.0781 309.8203,675.1641 Q310.2031,675.25 310.5313,675.4219 L310.5313,677.0313 Q310.1563,676.6875 309.8047,676.5313 Q309.4531,676.375 309.0938,676.375 Q308.2969,676.375 307.8906,677 Q307.4844,677.625 307.4844,678.8594 Q307.4844,680.0938 307.8906,680.7188 Q308.2969,681.3438 309.0938,681.3438 Q309.4531,681.3438 309.8047,681.1875 Q310.1563,681.0313 310.5313,680.6875 L310.5313,682.2969 Z "/><text fill="#000000" font-family="Monospace" font-size="10" lengthAdjust="spacingAndGlyphs" textLength="114" x="321.25" y="683.1797">CIM_VTOCDiskPartition</text><line style="stroke: #A80036; stroke-width: 1.5;" x1="297.25" x2="437.25" y1="693" y2="693"/><line style="stroke: #A80036; stroke-width: 1.5;" x1="297.25" x2="437.25" y1="701" y2="701"/><a xlink:href="LMI_LUKSStorageExtent.html" xlink:title="LMI_LUKSStorageExtent.html"><rect fill="#FEFECE" filter="url(#f1)" height="44" style="stroke: #A80036; stroke-width: 1.5;" width="151" x="550" y="217"/><ellipse cx="563" cy="231" fill="#ADD1B2" rx="9" ry="9" style="stroke: #A80036; stroke-width: 1.0;"/><path d="M564.2813,234.2969 Q563.9375,234.4688 563.5625,234.5547 Q563.1875,234.6406 562.7656,234.6406 Q561.2969,234.6406 560.5234,233.6719 Q559.75,232.7031 559.75,230.8594 Q559.75,229.0156 560.5234,228.0469 Q561.2969,227.0781 562.7656,227.0781 Q563.1875,227.0781 563.5703,227.1641 Q563.9531,227.25 564.2813,227.4219 L564.2813,229.0313 Q563.9063,228.6875 563.5547,228.5313 Q563.2031,228.375 562.8438,228.375 Q562.0469,228.375 561.6406,229 Q561.2344,229.625 561.2344,230.8594 Q561.2344,232.0938 561.6406,232.7188 Q562.0469,233.3438 562.8438,233.3438 Q563.2031,233.3438 563.5547,233.1875 Q563.9063,233.0313 564.2813,232.6875 L564.2813,234.2969 Z "/><text fill="#000000" font-family="Monospace" font-size="10" lengthAdjust="spacingAndGlyphs" textLength="123" x="575" y="235.1797">LMI_LUKSStorageExtent</text><line style="stroke: #A80036; stroke-width: 1.5;" x1="551" x2="700" y1="245" y2="245"/><line style="stroke: #A80036; stroke-width: 1.5;" x1="551" x2="700" y1="253" y2="253"/></a><rect fill="#FEFECE" filter="url(#f1)" height="44" style="stroke: #A80036; stroke-width: 1.5;" width="136" x="557.25" y="8"/><ellipse cx="570.25" cy="22" fill="#ADD1B2" rx="9" ry="9" style="stroke: #A80036; stroke-width: 1.0;"/><path d="M571.5313,25.2969 Q571.1875,25.4688 570.8125,25.5547 Q570.4375,25.6406 570.0156,25.6406 Q568.5469,25.6406 567.7734,24.6719 Q567,23.7031 567,21.8594 Q567,20.0156 567.7734,19.0469 Q568.5469,18.0781 570.0156,18.0781 Q570.4375,18.0781 570.8203,18.1641 Q571.2031,18.25 571.5313,18.4219 L571.5313,20.0313 Q571.1563,19.6875 570.8047,19.5313 Q570.4531,19.375 570.0938,19.375 Q569.2969,19.375 568.8906,20 Q568.4844,20.625 568.4844,21.8594 Q568.4844,23.0938 568.8906,23.7188 Q569.2969,24.3438 570.0938,24.3438 Q570.4531,24.3438 570.8047,24.1875 Q571.1563,24.0313 571.5313,23.6875 L571.5313,25.2969 Z "/><text fill="#000000" font-family="Monospace" font-size="10" lengthAdjust="spacingAndGlyphs" textLength="108" x="582.25" y="26.1797">LMI_EncryptionExtent</text><line style="stroke: #A80036; stroke-width: 1.5;" x1="558.25" x2="692.25" y1="36" y2="36"/><line style="stroke: #A80036; stroke-width: 1.5;" x1="558.25" x2="692.25" y1="44" y2="44"/><rect fill="#FEFECE" filter="url(#f1)" height="44" style="stroke: #A80036; stroke-width: 1.5;" width="134" x="473.25" y="665"/><ellipse cx="486.25" cy="679" fill="#ADD1B2" rx="9" ry="9" style="stroke: #A80036; stroke-width: 1.0;"/><path d="M487.5313,682.2969 Q487.1875,682.4688 486.8125,682.5547 Q486.4375,682.6406 486.0156,682.6406 Q484.5469,682.6406 483.7734,681.6719 Q483,680.7031 483,678.8594 Q483,677.0156 483.7734,676.0469 Q484.5469,675.0781 486.0156,675.0781 Q486.4375,675.0781 486.8203,675.1641 Q487.2031,675.25 487.5313,675.4219 L487.5313,677.0313 Q487.1563,676.6875 486.8047,676.5313 Q486.4531,676.375 486.0938,676.375 Q485.2969,676.375 484.8906,677 Q484.4844,677.625 484.4844,678.8594 Q484.4844,680.0938 484.8906,680.7188 Q485.2969,681.3438 486.0938,681.3438 Q486.4531,681.3438 486.8047,681.1875 Q487.1563,681.0313 487.5313,680.6875 L487.5313,682.2969 Z "/><text fill="#000000" font-family="Monospace" font-size="10" lengthAdjust="spacingAndGlyphs" textLength="106" x="498.25" y="683.1797">CIM_GPTDiskPartition</text><line style="stroke: #A80036; stroke-width: 1.5;" x1="474.25" x2="606.25" y1="693" y2="693"/><line style="stroke: #A80036; stroke-width: 1.5;" x1="474.25" x2="606.25" y1="701" y2="701"/><a xlink:href="LMI_LVStorageExtent.html" xlink:title="LMI_LVStorageExtent.html"><rect fill="#FEFECE" filter="url(#f1)" height="67.2813" style="stroke: #A80036; stroke-width: 1.5;" width="136" x="206.25" y="432.5"/><ellipse cx="219.25" cy="446.5" fill="#ADD1B2" rx="9" ry="9" style="stroke: #A80036; stroke-width: 1.0;"/><path d="M220.5313,449.7969 Q220.1875,449.9688 219.8125,450.0547 Q219.4375,450.1406 219.0156,450.1406 Q217.5469,450.1406 216.7734,449.1719 Q216,448.2031 216,446.3594 Q216,444.5156 216.7734,443.5469 Q217.5469,442.5781 219.0156,442.5781 Q219.4375,442.5781 219.8203,442.6641 Q220.2031,442.75 220.5313,442.9219 L220.5313,444.5313 Q220.1563,444.1875 219.8047,444.0313 Q219.4531,443.875 219.0938,443.875 Q218.2969,443.875 217.8906,444.5 Q217.4844,445.125 217.4844,446.3594 Q217.4844,447.5938 217.8906,448.2188 Q218.2969,448.8438 219.0938,448.8438 Q219.4531,448.8438 219.8047,448.6875 Q220.1563,448.5313 220.5313,448.1875 L220.5313,449.7969 Z "/><text fill="#000000" font-family="Monospace" font-size="10" lengthAdjust="spacingAndGlyphs" textLength="108" x="231.25" y="450.6797">LMI_LVStorageExtent</text><line style="stroke: #A80036; stroke-width: 1.5;" x1="207.25" x2="341.25" y1="460.5" y2="460.5"/><text fill="#000000" font-family="Monospace" font-size="10" lengthAdjust="spacingAndGlyphs" textLength="101" x="212.25" y="474.5">string ElementName</text><text fill="#000000" font-family="Monospace" font-size="10" lengthAdjust="spacingAndGlyphs" textLength="57" x="212.25" y="486.1406">string UUID</text><line style="stroke: #A80036; stroke-width: 1.5;" x1="207.25" x2="341.25" y1="491.7813" y2="491.7813"/></a><a xlink:href="LMI_GenericDiskPartition.html" xlink:title="LMI_GenericDiskPartition.html"><rect fill="#FEFECE" filter="url(#f1)" height="241.8906" style="stroke: #A80036; stroke-width: 1.5;" width="165" x="643" y="566"/><ellipse cx="663.2" cy="580" fill="#ADD1B2" rx="9" ry="9" style="stroke: #A80036; stroke-width: 1.0;"/><path d="M664.4813,583.2969 Q664.1375,583.4688 663.7625,583.5547 Q663.3875,583.6406 662.9656,583.6406 Q661.4969,583.6406 660.7234,582.6719 Q659.95,581.7031 659.95,579.8594 Q659.95,578.0156 660.7234,577.0469 Q661.4969,576.0781 662.9656,576.0781 Q663.3875,576.0781 663.7703,576.1641 Q664.1531,576.25 664.4813,576.4219 L664.4813,578.0313 Q664.1063,577.6875 663.7547,577.5313 Q663.4031,577.375 663.0438,577.375 Q662.2469,577.375 661.8406,578 Q661.4344,578.625 661.4344,579.8594 Q661.4344,581.0938 661.8406,581.7188 Q662.2469,582.3438 663.0438,582.3438 Q663.4031,582.3438 663.7547,582.1875 Q664.1063,582.0313 664.4813,581.6875 L664.4813,583.2969 Z "/><text fill="#000000" font-family="Monospace" font-size="10" lengthAdjust="spacingAndGlyphs" textLength="121" x="676.8" y="584.1797">LMI_GenericDiskPartition</text><line style="stroke: #A80036; stroke-width: 1.5;" x1="644" x2="807" y1="594" y2="594"/><text fill="#000000" font-family="Monospace" font-size="10" lengthAdjust="spacingAndGlyphs" textLength="78" x="649" y="608">uint64 BlockSize</text><text fill="#000000" font-family="Monospace" font-size="10" lengthAdjust="spacingAndGlyphs" textLength="124" x="649" y="619.6406">uint64 ConsumableBlocks</text><text fill="#000000" font-family="Monospace" font-size="10" lengthAdjust="spacingAndGlyphs" textLength="117" x="649" y="631.2813">uint16 DataRedundancy</text><text fill="#000000" font-family="Monospace" font-size="10" lengthAdjust="spacingAndGlyphs" textLength="101" x="649" y="642.9219">string ElementName</text><text fill="#000000" font-family="Monospace" font-size="10" lengthAdjust="spacingAndGlyphs" textLength="135" x="649" y="654.5625">string[] ExtentDiscriminator</text><text fill="#000000" font-family="Monospace" font-size="10" lengthAdjust="spacingAndGlyphs" textLength="106" x="649" y="666.2031">uint16[] ExtentStatus</text><text fill="#000000" font-family="Monospace" font-size="10" lengthAdjust="spacingAndGlyphs" textLength="129" x="649" y="677.8438">uint64 ExtentStripeLength</text><text fill="#000000" font-family="Monospace" font-size="10" lengthAdjust="spacingAndGlyphs" textLength="82" x="649" y="689.4844">string InstanceID</text><text fill="#000000" font-family="Monospace" font-size="10" lengthAdjust="spacingAndGlyphs" textLength="60" x="649" y="701.125">string Name</text><text fill="#000000" font-family="Monospace" font-size="10" lengthAdjust="spacingAndGlyphs" textLength="99" x="649" y="712.7656">uint16 NameFormat</text><text fill="#000000" font-family="Monospace" font-size="10" lengthAdjust="spacingAndGlyphs" textLength="121" x="649" y="724.4063">uint16 NameNamespace</text><text fill="#000000" font-family="Monospace" font-size="10" lengthAdjust="spacingAndGlyphs" textLength="73" x="649" y="736.0469">string[] Names</text><text fill="#000000" font-family="Monospace" font-size="10" lengthAdjust="spacingAndGlyphs" textLength="153" x="649" y="747.6875">boolean NoSinglePointOfFailure</text><text fill="#000000" font-family="Monospace" font-size="10" lengthAdjust="spacingAndGlyphs" textLength="115" x="649" y="759.3281">uint64 NumberOfBlocks</text><text fill="#000000" font-family="Monospace" font-size="10" lengthAdjust="spacingAndGlyphs" textLength="129" x="649" y="770.9688">uint16[] OperationalStatus</text><text fill="#000000" font-family="Monospace" font-size="10" lengthAdjust="spacingAndGlyphs" textLength="134" x="649" y="782.6094">uint16 PackageRedundancy</text><text fill="#000000" font-family="Monospace" font-size="10" lengthAdjust="spacingAndGlyphs" textLength="90" x="649" y="794.25">boolean Primordial</text><line style="stroke: #A80036; stroke-width: 1.5;" x1="644" x2="807" y1="799.8906" y2="799.8906"/></a><path d="M204.25,729.614 C204.25,765.221 204.25,818.479 204.25,868.337 " fill="none" style="stroke: #A80036; stroke-width: 1.0;"/><polygon fill="none" points="197.25,729.445,204.25,709.445,211.25,729.445,197.25,729.445" style="stroke: #A80036; stroke-width: 1.0;"/><path d="M382.581,496.792 C348.352,513.616 308.27,537.093 278.25,566 C248.101,595.031 225.212,638.821 213.336,664.699 " fill="none" style="stroke: #A80036; stroke-width: 1.0;"/><polygon fill="none" points="379.821,490.354,400.894,488.137,385.802,503.011,379.821,490.354" style="stroke: #A80036; stroke-width: 1.0;"/><path d="M179.022,355.196 C157.802,380.864 136.738,406.346 120.25,426.291 " fill="none" style="stroke: #A80036; stroke-width: 1.0;"/><polygon fill="none" points="173.717,350.626,191.855,339.671,184.508,359.546,173.717,350.626" style="stroke: #A80036; stroke-width: 1.0;"/><path d="M346.147,70.78 C340.926,82.92 334.88,96.98 328.557,111.69 " fill="none" style="stroke: #A80036; stroke-width: 1.0;"/><polygon fill="none" points="339.73,67.98,354.061,52.37,352.592,73.51,339.73,67.98" style="stroke: #A80036; stroke-width: 1.0;"/><path d="M380.635,70.99 C399.562,114.52 429.114,182.487 444.008,216.743 " fill="none" style="stroke: #A80036; stroke-width: 1.0;"/><polygon fill="none" points="374.098,73.51,372.543,52.37,386.937,67.92,374.098,73.51" style="stroke: #A80036; stroke-width: 1.0;"/><path d="M437.443,507.253 C419.181,553.757 389.822,628.521 375.56,664.838 " fill="none" style="stroke: #A80036; stroke-width: 1.0;"/><polygon fill="none" points="431.021,504.455,444.847,488.397,444.053,509.572,431.021,504.455" style="stroke: #A80036; stroke-width: 1.0;"/><path d="M625.25,72.47 C625.25,116.05 625.25,182.875 625.25,216.743 " fill="none" style="stroke: #A80036; stroke-width: 1.0;"/><polygon fill="none" points="618.25,72.37,625.25,52.37,632.25,72.37,618.25,72.37" style="stroke: #A80036; stroke-width: 1.0;"/><path d="M469.241,507.253 C487.715,553.757 517.416,628.521 531.843,664.838 " fill="none" style="stroke: #A80036; stroke-width: 1.0;"/><polygon fill="none" points="462.629,509.569,461.75,488.397,475.64,504.4,462.629,509.569" style="stroke: #A80036; stroke-width: 1.0;"/><path d="M274.25,386.344 C274.25,403.392 274.25,419.296 274.25,432.279 " fill="none" style="stroke: #A80036; stroke-width: 1.0;"/><polygon fill="none" points="267.25,386.312,274.25,366.312,281.25,386.312,267.25,386.312" style="stroke: #A80036; stroke-width: 1.0;"/><path d="M453.25,281.174 C453.25,329.139 453.25,406.543 453.25,443.725 " fill="none" style="stroke: #A80036; stroke-width: 1.0;"/><polygon fill="none" points="446.25,281.167,453.25,261.167,460.25,281.167,446.25,281.167" style="stroke: #A80036; stroke-width: 1.0;"/><path d="M517.082,497.181 C550.781,514.733 591.763,538.749 624.25,566 C630.509,571.25 636.688,576.918 642.719,582.833 " fill="none" style="stroke: #A80036; stroke-width: 1.0;"/><polygon fill="none" points="513.88,503.406,499.21,488.116,520.213,490.921,513.88,503.406" style="stroke: #A80036; stroke-width: 1.0;"/></g></svg>