<?xml version="1.0" encoding="UTF-8" standalone="yes"?><svg xmlns="http://www.w3.org/2000/svg" xmlns:xlink="http://www.w3.org/1999/xlink" height="316pt" style="width:415px;height:316px;" version="1.1" viewBox="0 0 415 316" width="415pt"><defs><filter height="300%" id="f1" width="300%" x="-1" y="-1"><feGaussianBlur result="blurOut" stdDeviation="2"/><feColorMatrix in="blurOut" result="blurOut2" type="matrix" values="0 0 0 0 0 0 0 0 0 0 0 0 0 0 0 0 0 0 .4 0"/><feOffset dx="4" dy="4" in="blurOut2" result="blurOut3"/><feBlend in="SourceGraphic" in2="blurOut3" mode="normal"/></filter></defs><g><a xlink:href="LMI_LVAllocatedFromStoragePool.html" xlink:title="LMI_LVAllocatedFromStoragePool.html"><rect fill="#FEFECE" filter="url(#f1)" height="44" style="stroke: #A80036; stroke-width: 1.5;" width="194" x="212.25" y="188"/><ellipse cx="225.25" cy="202" fill="#ADD1B2" rx="9" ry="9" style="stroke: #A80036; stroke-width: 1.0;"/><path d="M226.5313,205.2969 Q226.1875,205.4688 225.8125,205.5547 Q225.4375,205.6406 225.0156,205.6406 Q223.5469,205.6406 222.7734,204.6719 Q222,203.7031 222,201.8594 Q222,200.0156 222.7734,199.0469 Q223.5469,198.0781 225.0156,198.0781 Q225.4375,198.0781 225.8203,198.1641 Q226.2031,198.25 226.5313,198.4219 L226.5313,200.0313 Q226.1563,199.6875 225.8047,199.5313 Q225.4531,199.375 225.0938,199.375 Q224.2969,199.375 223.8906,200 Q223.4844,200.625 223.4844,201.8594 Q223.4844,203.0938 223.8906,203.7188 Q224.2969,204.3438 225.0938,204.3438 Q225.4531,204.3438 225.8047,204.1875 Q226.1563,204.0313 226.5313,203.6875 L226.5313,205.2969 Z "/><text fill="#000000" font-family="Monospace" font-size="10" lengthAdjust="spacingAndGlyphs" textLength="166" x="237.25" y="206.1797">LMI_LVAllocatedFromStoragePool</text><line style="stroke: #A80036; stroke-width: 1.5;" x1="213.25" x2="405.25" y1="216" y2="216"/><line style="stroke: #A80036; stroke-width: 1.5;" x1="213.25" x2="405.25" y1="224" y2="224"/></a><rect fill="#FEFECE" filter="url(#f1)" height="44" style="stroke: #A80036; stroke-width: 1.5;" width="183" x="218" y="8"/><ellipse cx="231" cy="22" fill="#ADD1B2" rx="9" ry="9" style="stroke: #A80036; stroke-width: 1.0;"/><path d="M232.2813,25.2969 Q231.9375,25.4688 231.5625,25.5547 Q231.1875,25.6406 230.7656,25.6406 Q229.2969,25.6406 228.5234,24.6719 Q227.75,23.7031 227.75,21.8594 Q227.75,20.0156 228.5234,19.0469 Q229.2969,18.0781 230.7656,18.0781 Q231.1875,18.0781 231.5703,18.1641 Q231.9531,18.25 232.2813,18.4219 L232.2813,20.0313 Q231.9063,19.6875 231.5547,19.5313 Q231.2031,19.375 230.8438,19.375 Q230.0469,19.375 229.6406,20 Q229.2344,20.625 229.2344,21.8594 Q229.2344,23.0938 229.6406,23.7188 Q230.0469,24.3438 230.8438,24.3438 Q231.2031,24.3438 231.5547,24.1875 Q231.9063,24.0313 232.2813,23.6875 L232.2813,25.2969 Z "/><text fill="#000000" font-family="Monospace" font-size="10" lengthAdjust="spacingAndGlyphs" textLength="155" x="243" y="26.1797">CIM_AllocatedFromStoragePool</text><line style="stroke: #A80036; stroke-width: 1.5;" x1="219" x2="400" y1="36" y2="36"/><line style="stroke: #A80036; stroke-width: 1.5;" x1="219" x2="400" y1="44" y2="44"/><a xlink:href="LMI_VGStoragePool.html" xlink:title="LMI_VGStoragePool.html"><rect fill="#FEFECE" filter="url(#f1)" height="195.3281" style="stroke: #A80036; stroke-width: 1.5;" width="171" x="6" y="112.5"/><ellipse cx="39.25" cy="126.5" fill="#ADD1B2" rx="9" ry="9" style="stroke: #A80036; stroke-width: 1.0;"/><path d="M40.5313,129.7969 Q40.1875,129.9688 39.8125,130.0547 Q39.4375,130.1406 39.0156,130.1406 Q37.5469,130.1406 36.7734,129.1719 Q36,128.2031 36,126.3594 Q36,124.5156 36.7734,123.5469 Q37.5469,122.5781 39.0156,122.5781 Q39.4375,122.5781 39.8203,122.6641 Q40.2031,122.75 40.5313,122.9219 L40.5313,124.5313 Q40.1563,124.1875 39.8047,124.0313 Q39.4531,123.875 39.0938,123.875 Q38.2969,123.875 37.8906,124.5 Q37.4844,125.125 37.4844,126.3594 Q37.4844,127.5938 37.8906,128.2188 Q38.2969,128.8438 39.0938,128.8438 Q39.4531,128.8438 39.8047,128.6875 Q40.1563,128.5313 40.5313,128.1875 L40.5313,129.7969 Z "/><text fill="#000000" font-family="Monospace" font-size="10" lengthAdjust="spacingAndGlyphs" textLength="98" x="55.75" y="130.6797">LMI_VGStoragePool</text><line style="stroke: #A80036; stroke-width: 1.5;" x1="7" x2="176" y1="140.5" y2="140.5"/><text fill="#000000" font-family="Monospace" font-size="10" lengthAdjust="spacingAndGlyphs" textLength="101" x="12" y="154.5">string ElementName</text><text fill="#000000" font-family="Monospace" font-size="10" lengthAdjust="spacingAndGlyphs" textLength="86" x="12" y="166.1406">uint64 ExtentSize</text><text fill="#000000" font-family="Monospace" font-size="10" lengthAdjust="spacingAndGlyphs" textLength="82" x="12" y="177.7813">string InstanceID</text><text fill="#000000" font-family="Monospace" font-size="10" lengthAdjust="spacingAndGlyphs" textLength="60" x="12" y="189.4219">string Name</text><text fill="#000000" font-family="Monospace" font-size="10" lengthAdjust="spacingAndGlyphs" textLength="62" x="12" y="201.0625">string PoolID</text><text fill="#000000" font-family="Monospace" font-size="10" lengthAdjust="spacingAndGlyphs" textLength="90" x="12" y="212.7031">boolean Primordial</text><text fill="#000000" font-family="Monospace" font-size="10" lengthAdjust="spacingAndGlyphs" textLength="122" x="12" y="224.3438">uint64 RemainingExtents</text><text fill="#000000" font-family="Monospace" font-size="10" lengthAdjust="spacingAndGlyphs" textLength="159" x="12" y="235.9844">uint64 RemainingManagedSpace</text><text fill="#000000" font-family="Monospace" font-size="10" lengthAdjust="spacingAndGlyphs" textLength="94" x="12" y="247.625">uint64 TotalExtents</text><text fill="#000000" font-family="Monospace" font-size="10" lengthAdjust="spacingAndGlyphs" textLength="131" x="12" y="259.2656">uint64 TotalManagedSpace</text><text fill="#000000" font-family="Monospace" font-size="10" lengthAdjust="spacingAndGlyphs" textLength="57" x="12" y="270.9063">string UUID</text><line style="stroke: #A80036; stroke-width: 1.5;" x1="7" x2="176" y1="276.5469" y2="276.5469"/><text fill="#000000" font-family="Monospace" font-size="10" lengthAdjust="spacingAndGlyphs" textLength="128" x="12" y="290.5469">GetSupportedSizeRange()</text><text fill="#000000" font-family="Monospace" font-size="10" lengthAdjust="spacingAndGlyphs" textLength="102" x="12" y="302.1875">GetSupportedSizes()</text></a><rect fill="#FEFECE" filter="url(#f1)" height="44" style="stroke: #A80036; stroke-width: 1.5;" width="113" x="35" y="8"/><ellipse cx="48" cy="22" fill="#ADD1B2" rx="9" ry="9" style="stroke: #A80036; stroke-width: 1.0;"/><path d="M49.2813,25.2969 Q48.9375,25.4688 48.5625,25.5547 Q48.1875,25.6406 47.7656,25.6406 Q46.2969,25.6406 45.5234,24.6719 Q44.75,23.7031 44.75,21.8594 Q44.75,20.0156 45.5234,19.0469 Q46.2969,18.0781 47.7656,18.0781 Q48.1875,18.0781 48.5703,18.1641 Q48.9531,18.25 49.2813,18.4219 L49.2813,20.0313 Q48.9063,19.6875 48.5547,19.5313 Q48.2031,19.375 47.8438,19.375 Q47.0469,19.375 46.6406,20 Q46.2344,20.625 46.2344,21.8594 Q46.2344,23.0938 46.6406,23.7188 Q47.0469,24.3438 47.8438,24.3438 Q48.2031,24.3438 48.5547,24.1875 Q48.9063,24.0313 49.2813,23.6875 L49.2813,25.2969 Z "/><text fill="#000000" font-family="Monospace" font-size="10" lengthAdjust="spacingAndGlyphs" textLength="85" x="60" y="26.1797">CIM_StoragePool</text><line style="stroke: #A80036; stroke-width: 1.5;" x1="36" x2="147" y1="36" y2="36"/><line style="stroke: #A80036; stroke-width: 1.5;" x1="36" x2="147" y1="44" y2="44"/><path d="M309.25,72.119 C309.25,108.291 309.25,159.488 309.25,187.91 " fill="none" style="stroke: #A80036; stroke-width: 1.0;"/><polygon fill="none" points="302.25,72.118,309.25,52.118,316.25,72.118,302.25,72.118" style="stroke: #A80036; stroke-width: 1.0;"/><path d="M91.25,72.372 C91.25,84.469 91.25,98.23 91.25,112.25 " fill="none" style="stroke: #A80036; stroke-width: 1.0;"/><polygon fill="none" points="84.2501,72.118,91.25,52.118,98.2501,72.118,84.2501,72.118" style="stroke: #A80036; stroke-width: 1.0;"/></g></svg>